<svg xmlns="http://www.w3.org/2000/svg" viewBox="0 0 28 28"><defs><style>.cls-1{fill:#e5d29c;}</style></defs><g id="圖層_2" data-name="圖層 2"><g id="Layer_1" data-name="Layer 1"><path class="cls-1" d="M23.33,0H4.67A4.67,4.67,0,0,0,0,4.67V23.33A4.67,4.67,0,0,0,4.67,28H23.33A4.67,4.67,0,0,0,28,23.33V4.67A4.67,4.67,0,0,0,23.33,0Zm2.34,23.33a2.34,2.34,0,0,1-2.34,2.34H4.67a2.34,2.34,0,0,1-2.34-2.34V4.67A2.34,2.34,0,0,1,4.67,2.33H23.33a2.34,2.34,0,0,1,2.34,2.34Z"/><path class="cls-1" d="M14,7a7,7,0,1,0,7,7A7,7,0,0,0,14,7Zm0,11.67A4.67,4.67,0,1,1,18.67,14,4.67,4.67,0,0,1,14,18.67Z"/><circle class="cls-1" cx="21.58" cy="6.42" r="1.75"/></g></g></svg>