<svg xmlns="http://www.w3.org/2000/svg" viewBox="0 0 82.38 73.89"><defs><style>.cls-1{fill:#e5d29c;}</style></defs><g id="圖層_2" data-name="圖層 2"><g id="Layer_1" data-name="Layer 1"><path class="cls-1" d="M45.41,43.25l-1,8.09c-.16,1.27-.67,2-1.52,2.3L41.37,54l-.12,0h2.28a3.9,3.9,0,0,0,2.61-1,3.65,3.65,0,0,0,1.33-2.4l.05-.32L48.2,45c-.48.2-.71-.8-1.27-.4s.77,1,1,1.19c-1.4,1.19-1.72-3,.35-1l.2-1.56h3.26l-.86,6.57H49l-.08.47h6.66l.06-.47H53.85l1.91-14.73a2.81,2.81,0,0,0-.71-2.39,3,3,0,0,0-2.35-1H50.42a3.91,3.91,0,0,0-2.6,1,3.67,3.67,0,0,0-1.34,2.39l-.8,6.22h0c0,.17,0,.33,0,.5l-.13,1H43.82l-.06.46Zm8.66,4.68c-.79,0-.16-1.08-.91-1.14s-.06,1.28,0,1.53C51.26,48.36,53.8,44.75,54.07,47.93ZM49.59,34.38c.19-1.47.7-2.21,1.52-2.21h.79c.81,0,1.13.74.94,2.21l-1.09,8.41H48.49Z"/><path class="cls-1" d="M42.92,32.65c.34-.48.25-.76,0-.95H32.75l-.54,4.15h.7l.19-1.52a2.46,2.46,0,0,1,1-1.55,2.27,2.27,0,0,1,1.23-.59v0h1.23a4.22,4.22,0,0,1,.11.59,3.47,3.47,0,0,1,0,1l-.83,6.35-1.27,9.75h-2l-.06.47h7l.06-.47h-2l2-15.44a5.59,5.59,0,0,1,.12-.66l.19-1.55h1.48l0,0a1.68,1.68,0,0,1,1.08.59,1.79,1.79,0,0,1,.56,1.55l-.21,1.52h.7l.34-2.6C43.07,33.34,42.43,33.32,42.92,32.65Z"/><path class="cls-1" d="M28.48,49.82l.57-4.34a1.65,1.65,0,0,0-.3,0c-1-.12.16-.6.14-.85a2.2,2.2,0,0,1-.76-.59c.83-.11,0-.65.87-.51a1.8,1.8,0,0,0,.12,1.39l1.28-9.83a2.81,2.81,0,0,0-.72-2.38,3,3,0,0,0-2.35-1h-1.9a1.22,1.22,0,0,0-.61.19,1.74,1.74,0,0,0-.34.28.82.82,0,0,1-.16.15v0a3.13,3.13,0,0,0-.19-.54h-.38v0H19.56l-.06.47h1.71a4.52,4.52,0,0,1,.12.6,3.48,3.48,0,0,1,0,1l-1.9,14.56h.08a.13.13,0,0,1-.09.06l-.19,1.46h-2l-.06.47h7l.06-.47h-2l2-15.49c.19-1.47.7-2.2,1.52-2.2h.79c.81,0,1.13.73.95,2.2l-.17,1.29a.46.46,0,0,0,.45.09.47.47,0,0,0-.25-.23c0-.34,1.11-.22,1.23.37a11,11,0,0,1-1.46,0l-.26,2c.21-.2,1,.5.78,1a10,10,0,0,1-.84-.57l-.78,6-.72,5.57-.06.47h5c-.07-.06-.11-.12-.1-.16a.84.84,0,0,1,.16-.31Z"/><path class="cls-1" d="M27,37.85l0,.26.09,0A.54.54,0,0,0,27,37.85Z"/><path class="cls-1" d="M11.33,32.17h2.83c.05.23.09.42.11.59a3.47,3.47,0,0,1,0,1l-.83,6.35-1.27,9.75h-2l-.06.47h7l.06-.47h-2l2-15.44a5.59,5.59,0,0,1,.12-.66l.19-1.55h1.68l.06-.47H18l-.25,0v0h-9l-.06.47h2.13L6.48,44.23,5,32.17H7L7,31.7h-7L0,32.17H1.79L4.46,50.29H5Zm3.53,6.4A1.54,1.54,0,0,1,16,39.81C15.57,39.63,14.67,39,14.86,38.57Zm-10.16-2A1.56,1.56,0,0,0,5.61,38c-.33.54-.67.39-1-.43l-.67-.66C4.14,36.45,4.41,36.32,4.7,36.52Zm-.54,4.32a1.56,1.56,0,0,1,1.3-1.07C5.25,40.19,4.57,41.05,4.16,40.84Z"/><path class="cls-1" d="M63.29,50.58c-.32.12-.94.33-1.85.63a12.24,12.24,0,0,0-3.56,1.61,3.66,3.66,0,0,0-1.2,2.44l-.13.93a2.9,2.9,0,0,0,.71,2.4,3.05,3.05,0,0,0,2.35,1h2.3a3.85,3.85,0,0,0,2.59-1,3.79,3.79,0,0,0,1.35-2.4l1.66-12.86h-3l-.59,4.48h0a1.16,1.16,0,0,1,0,.17c-.22,1.23-.7,1.84-1.45,1.84h-.8c-.82,0-1.14-.73-1-2.19l.12-.93c-.1-.06-.14-.13-.06-.21h.09l1.59-12.12c.18-1.47.68-2.21,1.5-2.21h.8c.82,0,1.13.74.94,2.21l-.25,2h3l.33-2.46A5.15,5.15,0,0,1,67,33.2a3.79,3.79,0,0,1-1.18-1.5H63.23a3.91,3.91,0,0,0-2.6,1,3.8,3.8,0,0,0-1.34,2.39l-.36,2.8c.19,0,.31-.1.24-.17.54.14.16.34.45.69a3.48,3.48,0,0,1-.75-.07L57.76,46.9a2.89,2.89,0,0,0,.71,2.4,3.05,3.05,0,0,0,2.35,1h2.76A.42.42,0,0,1,63.29,50.58Zm3.63-7c.31.34.21.63-.14,1l-.49-.5A6.31,6.31,0,0,0,66.92,43.57Zm-7.59-6.34c-.41-.17,1.24-.75,1-.91.56,0,.26.28.65.53A13.25,13.25,0,0,0,59.33,37.23Zm4.15,14-.76,5.74q-.27,2.19-1.5,2.19h-.8a.85.85,0,0,1-.87-.57,3.41,3.41,0,0,1-.07-1.62L60,53a.69.69,0,0,1,0-.13c.1-.31.68-.66,1.73-1A15.79,15.79,0,0,1,63.48,51.18Z"/><path class="cls-1" d="M48.66,28.65H51a4,4,0,0,0,2.67-1,3.85,3.85,0,0,0,1.38-2.46L56.63,13a3,3,0,0,0-.73-2.46,3.15,3.15,0,0,0-2.42-1H51.15a4.06,4.06,0,0,0-2.69,1A3.78,3.78,0,0,0,47.1,13L45.51,25.17a3,3,0,0,0,.73,2.46A3.13,3.13,0,0,0,48.66,28.65Zm6.26-18.58c.75,1,.17.57-.18,1.15C53.91,11.26,54.83,10.14,54.92,10.07Zm-6.4,15.85.5-3.78,1.27-9.83C50.48,10.8,51,10,51.83,10h.83c.84,0,1.16.76,1,2.27L51.85,25.92c-.19,1.5-.7,2.25-1.54,2.25h-.83Q48.22,28.17,48.52,25.92Z"/><path class="cls-1" d="M32.79,19.61l-.73,5.56a3,3,0,0,0,.73,2.46,3.13,3.13,0,0,0,2.42,1h2.35a4,4,0,0,0,2.67-1,3.85,3.85,0,0,0,1.38-2.46L43.18,13a3,3,0,0,0-.73-2.46,3.15,3.15,0,0,0-2.42-1H37.69a4,4,0,0,0-2.68,1A3.78,3.78,0,0,0,33.65,13l-.77,5.85.37.36A3.33,3.33,0,0,0,32.79,19.61Zm9.43-6.47c.2.26.39.52.58.79a2.83,2.83,0,0,0-1,.69C41.84,14.32,41.59,13.63,42.22,13.14ZM35.07,25.92l.5-3.78.45-3.5c-.48.07-.89,0-.73-.56.29-.09.57-.19.84-.29l.71-5.48C37,10.8,37.54,10,38.38,10h.83c.84,0,1.16.76,1,2.27L38.4,25.92c-.19,1.5-.71,2.25-1.55,2.25H36Q34.77,28.17,35.07,25.92Z"/><path class="cls-1" d="M21.12,28.65h2.36a4,4,0,0,0,2.67-1,3.85,3.85,0,0,0,1.38-2.46L30.74.46h2L32.82,0H25.67l-.06.46h2L25.7,15.32a4.26,4.26,0,0,1,1.85.56c-.64-.05-1.27-.06-1.91-.06l-.08.57a1.05,1.05,0,0,1,0,.18h0s0,.09,0,.18c-.22,1.26-.71,1.89-1.48,1.89h-.83c-.84,0-1.16-.75-1-2.25L24.29.46,24.35,0H19.24l-.06.46h2l-1.29,9.88a4.52,4.52,0,0,1,3,.08c-1,.07-2.05.24-3.08.38l-.63,4.84A3,3,0,0,0,20,18.1a3.09,3.09,0,0,0,2.41,1H25.2a.5.5,0,0,1-.3.3c-.32.12-.95.33-1.9.64a12.87,12.87,0,0,0-3.66,1.65,3.81,3.81,0,0,0-1.23,2.5l-.13,1a3,3,0,0,0,.73,2.46A3.12,3.12,0,0,0,21.12,28.65ZM21,25.92l.52-4.06a.58.58,0,0,1,0-.14c.11-.32.7-.68,1.78-1.08A15.29,15.29,0,0,1,25.1,20l-.78,5.89c-.19,1.5-.71,2.25-1.55,2.25H22a.87.87,0,0,1-.89-.58A3.49,3.49,0,0,1,21,25.92Z"/><path class="cls-1" d="M82.23,32.78l.15-1.08H71.16c-.06,0-.07,0-.1.07a.57.57,0,0,1-.13.14.79.79,0,0,1-.63.14,1,1,0,0,1-.7-.67,3.07,3.07,0,0,1,.08-1.5L70,28h0l.48-3.68a3.38,3.38,0,0,0-.63-2.56,3.5,3.5,0,0,0-2.22-1.36A4.72,4.72,0,0,0,70.09,19a4.31,4.31,0,0,0,.39-.46c-.28-.36-.72-.5-1-1.23.5,0,.87.37,1.4.66a4.05,4.05,0,0,0,.49-1.47l.74-5.71a3.39,3.39,0,0,0-.84-2.82,3.57,3.57,0,0,0-2.77-1.17H65.79l-.29,0v0H59.33l-.07.55h2a5,5,0,0,1,.14.69,4.31,4.31,0,0,1,0,1.13l-.52,3.91a2.83,2.83,0,0,0,.54-.32,1.12,1.12,0,0,0,.33.49,2.38,2.38,0,0,1-.93.29l-.38,3s0,0,0,.15h0L58.88,28.1H56.56l-.07.55h8.2l.07-.55H62.44l1-7.7,1.34.05a1.94,1.94,0,0,1,1.11.28c.9.57,1,3.29.38,8.16v.24a3.35,3.35,0,0,0,.91,2.73A3.53,3.53,0,0,0,69.88,33h3.06a3.12,3.12,0,0,1-.06.74l-1,8.06.53-.12a2.11,2.11,0,0,1,.67.69c-.67,0-.91.44-1.22-.39L71.15,47c.64-.09,1.4-.27,1.49.38a5.53,5.53,0,0,1-1.56.11l-.3,2.31h-2l-.06.47h9.72a.57.57,0,0,1,.11-.39c.17.13.4.25.55.39H80l.54-4.14h-3l-.26,2c-.14,1.11-.53,1.68-1.2,1.69H75c-.67,0-1-.49-1-1.48a2,2,0,0,1-.93-.21c0-.5.65-.08.84-.07a.48.48,0,0,0,.11-.15l0-.24a.51.51,0,0,0-.07-.15l.08.12h0l.57-4.38h3.21l.07-.46H74.72l1.1-8.41a5.59,5.59,0,0,1,.12-.66l.19-1.55h2.19v0c.65,0,.9.57.76,1.68l-.25,2h3l.36-2.73L81.85,33C81.84,32.73,82,32.73,82.23,32.78Zm-11-16.12a2.79,2.79,0,0,1-.17-.48c-.3-.29-.79-.58-.35-1.37a8.11,8.11,0,0,1,.35,1.37A.44.44,0,0,1,71.25,16.66Zm.22-6.24c-.78.62.79,1.49-1.23,1.59C69.56,12.05,71.47,9.71,71.47,10.42ZM70.24,7.47C69.46,8.08,71,9,69,9.06,68.31,9.09,70.24,6.75,70.24,7.47ZM66.05,19.89H63.54l.24-1.82c0-.24,0-.5.07-.77l1-7.39c0-.28.08-.53.14-.78l.22-1.82h2.51v0c.85.08,1.16.94.95,2.58l-.07.5a12.91,12.91,0,0,1,.61,1.2,1,1,0,0,1-.72-.3l-.79,6C67.46,19,66.92,19.81,66.05,19.89Zm7.71,27.35s.11.07.2.2A1.26,1.26,0,0,0,73.76,47.24Zm5.75-15.3c.68,0,1.77-.46,1.88.33C80.75,32.31,79.52,32.75,79.51,31.94Z"/><polygon class="cls-1" points="13.42 15.52 12.48 15.52 12.48 25.11 12.8 25.11 13.42 15.52"/><polygon class="cls-1" points="9.59 27.86 0 27.24 0 28.18 9.59 28.18 9.59 27.86"/><polygon class="cls-1" points="11.26 25.31 6.97 16.71 6.16 17.18 10.99 25.47 11.26 25.31"/><polygon class="cls-1" points="10 26.63 2.24 20.96 1.74 21.76 9.83 26.89 10 26.63"/><path class="cls-1" d="M37.06,67.39a5.29,5.29,0,0,0-1-.74,1.5,1.5,0,0,1-.43-.35,5.66,5.66,0,0,0-1.72-1.62,1.36,1.36,0,0,0-.28-.11,1,1,0,0,0-.17,0,.86.86,0,0,0,0,.17c.12.38.46.57.7.85a.2.2,0,0,1,0,.21.21.21,0,0,1-.21.06,4.06,4.06,0,0,0-1.19-.5c-.22-.06-.41-.28-.68-.22.15.17.33.33.46.51a2.72,2.72,0,0,0,1.11.7,5.07,5.07,0,0,1,1.6.91c.59.1,1,.67,1.6.7.2,0,.38.27.57.41l.28.23c.09-.06.15-.08.17-.12a.18.18,0,0,0,0-.16C37.61,68,37.33,67.72,37.06,67.39Z"/><path class="cls-1" d="M45.61,70.71a6.91,6.91,0,0,1-1.27-.89c-.43-.34-.88-.64-1.33-.95-.07-.05-.19,0-.28,0s-.07.22,0,.3a1.54,1.54,0,0,0,.6.81,11.77,11.77,0,0,1,1.52,1.29,4.7,4.7,0,0,0,1.49,1,3.83,3.83,0,0,1,.43.17c.11-.06.27-.09.28-.15a.47.47,0,0,0-.07-.37A5.4,5.4,0,0,0,45.61,70.71Z"/><path class="cls-1" d="M60.14,73.5l-1.8-1a1.73,1.73,0,0,0-1-.31c-.3,0-.52-.18-.75-.35a.38.38,0,0,0-.66.3.41.41,0,0,0,.11.24c.33-.11.45.24.69.33a1.57,1.57,0,0,0,.5.14,1.74,1.74,0,0,1,1,.36,12.59,12.59,0,0,0,1.61.65l0-.08a.64.64,0,0,0,.24,0c.06,0,.1-.1.12-.16A.15.15,0,0,0,60.14,73.5Z"/><path class="cls-1" d="M7.21,69.05c-.55.38-1.19.58-1.72,1a4.34,4.34,0,0,0-.52.53,1.94,1.94,0,0,0-.15.24c.11.06.22.14.33.19a1,1,0,0,0,.26,0,2.17,2.17,0,0,0,.52-.27,3,3,0,0,1,.73-.43,2.53,2.53,0,0,0,1.23-1A.85.85,0,0,0,8,69a1.88,1.88,0,0,0-.45-.12A.8.8,0,0,0,7.21,69.05Z"/><path class="cls-1" d="M63.43,71.58a1.34,1.34,0,0,1-.75-.33c-.33-.31-.78-.2-1.15-.4-.11-.07-.38.14-.61.23.07.12.09.21.15.24.75.35,1.5.72,2.26,1a3.08,3.08,0,0,0,.9.19c.1,0,.22-.11.32-.19a.48.48,0,0,0-.12-.22A1.58,1.58,0,0,0,63.43,71.58Z"/><path class="cls-1" d="M24.21,66.11c-.4,0-.83,0-1,.47-.44.16-.63.66-1.16.76-.31.06-.57.43-.84.67a.21.21,0,0,0-.05.21s.13.07.2.09a.65.65,0,0,0,.19,0,.61.61,0,0,0,.6-.27A10.18,10.18,0,0,1,24,66.61c.1-.07.23-.11.33-.18a.27.27,0,0,0,.07-.21S24.27,66.11,24.21,66.11Z"/><path class="cls-1" d="M29.71,65.49a2,2,0,0,0-.39.24,6.42,6.42,0,0,0-1,.72,13.18,13.18,0,0,0-.95,1.15.52.52,0,0,0,0,.13s.08.1.14.1a1,1,0,0,0,.76-.33c.22-.21.49-.39.71-.6s.38-.29.34-.6c0-.09.14-.2.22-.31S29.77,65.47,29.71,65.49Z"/><path class="cls-1" d="M13.27,68.76c-.37.24-.72.51-1.06.78a.17.17,0,0,0,.15.29c.63-.28,1.35-.39,1.79-1a1.36,1.36,0,0,0,.11-.28l-.34-.13A5.67,5.67,0,0,0,13.27,68.76Z"/><path class="cls-1" d="M3.81,67.2c-.14.15-.4.2-.59.32s-.1.17-.15.26l.35.19a4.68,4.68,0,0,0,.66-.37.34.34,0,0,0,.08-.32C4.11,67.19,4,67,3.81,67.2Z"/><path class="cls-1" d="M21.62,65.85c-.06-.06-.11-.17-.14-.16a1.78,1.78,0,0,0-1,.38s0,.15,0,.22.09.07.13.06c.29-.09.58-.19.86-.3C21.52,66,21.56,65.93,21.62,65.85Z"/><path class="cls-1" d="M9.22,67.11A.16.16,0,0,0,9.29,67c0-.07,0-.18-.09-.19a3.85,3.85,0,0,0-.48,0H8.47c-.19,0-.35.18-.31.38s.35.15.39.1C8.75,67.05,9,67.15,9.22,67.11Z"/><path class="cls-1" d="M35.18,70a.77.77,0,0,0,.23.1c.07,0,.14,0,.21-.06l-.19-.13Z"/><path class="cls-1" d="M46.92,67.88s-.08,0-.29.13l.34.14s.09-.05.13-.08A1.09,1.09,0,0,0,46.92,67.88Z"/><path class="cls-1" d="M73.19,69.7a14.57,14.57,0,0,1-3.71-.87c-1.15-.58-1.81-1.32-3.43-.86s-5.13,1.16-5.13,1.16a2.47,2.47,0,0,1-1.49,0,.76.76,0,0,0-.8.2c-1.08-.59-2.16-1.18-3.3-1.67a2.43,2.43,0,0,1-.7-.5A8.48,8.48,0,0,0,53.18,66a1.67,1.67,0,0,0-1.57-.13,8.08,8.08,0,0,0-1.78.85.59.59,0,0,1-.78-.16,2.58,2.58,0,0,0-1.29-1.23s-.08-.06-.12-.11a3.71,3.71,0,0,0-1.9-1.18,3.85,3.85,0,0,1-1.25-.76c-.45-.35-1-.49-1.42-1-.21-.26-.55-.17-.82-.08-.46.16-.89.38-1.34.54a9.54,9.54,0,0,1-1.37.45,1.48,1.48,0,0,0-.85.36.48.48,0,0,1-.32.15.82.82,0,0,1-.4-.21,4.41,4.41,0,0,1-1.19-1.39,9.61,9.61,0,0,0-1.22-1.7,6.27,6.27,0,0,0-.5-.54,4.24,4.24,0,0,1-.43-.52c-.37-.57-.93-.44-1.46-.41-.17.26-.45.15-.68.16a4.37,4.37,0,0,0-1.33.36,8.37,8.37,0,0,1-2.25.74,1.57,1.57,0,0,0-.84.35,5.38,5.38,0,0,1-1.44.66c-.19.08-.43.07-.58.19a1,1,0,0,1-1,.15,2.52,2.52,0,0,0-.93-.11c-.19,0-.42.07-.57,0s-.49-.37-.78-.29a8.66,8.66,0,0,0-1.57.57c-.95.49-1.87,1-2.79,1.57-.55.32-1.08.68-1.62,1-.2.13-.27.44-.56.43a4.36,4.36,0,0,1-1.44-.06c-.7-.27-1.42-.52-2.14-.77a15.78,15.78,0,0,0-1.52-.48,2,2,0,0,0-2,.5,13.9,13.9,0,0,1-2.5,1.69.75.75,0,0,1-.2.1,1,1,0,0,0-.6.54,4.74,4.74,0,0,0,.93-.07,3,3,0,0,0,.88-.43c.3-.2.72-.2.92-.58,0-.07.23-.09.36-.1.47,0,1,.06,1.34-.35,0,0,.11,0,.16,0,.21,0,.31.06.25.27-.16.51-.22.58-.91,1.06-.23.16-.25.25-.06.38a.72.72,0,0,0,.73.12,2.91,2.91,0,0,0,1.24-.94.74.74,0,0,1,.63-.28,2.29,2.29,0,0,1,1.43.29,1.79,1.79,0,0,0,.24.12c-.08.07-.15.19-.24.22A21.25,21.25,0,0,0,9.22,68.1a2.29,2.29,0,0,0-.27.14.63.63,0,0,0-.12.11c.05,0,.09.08.14.08l.8,0a4.57,4.57,0,0,0,2.3-.64c.47-.2,1-.15,1.41-.58a5.24,5.24,0,0,0,1.4-.41,6.8,6.8,0,0,0,2.32-1.11,23.45,23.45,0,0,1,3.63-2.1,7.87,7.87,0,0,1,1.76-.89,4.43,4.43,0,0,1,.43-.15c.25-.05.37,0,.15.25-.07.08,0,.27,0,.41a1.29,1.29,0,0,1-1,1.32c-.09,0-.17.15-.26.16s-.25.15-.17.26.26.16.39.24c.19-.34.58-.1.87-.32a3.55,3.55,0,0,0,.63-.59c.33-.45.92-.52,1.25-1,.31.08.64.14.95.25a4.05,4.05,0,0,1,.59.36l.2.08-.21.08a4.81,4.81,0,0,0-1.64,1.36.43.43,0,0,0,0,.28.3.3,0,0,0,.22,0c.67-.27,1.44-.15,2.09-.53.39-.23.83-.36,1.22-.6s1-.72,1.52-1.08,1.32-.9,1.94-1.4a3.59,3.59,0,0,0,.79-1,2.09,2.09,0,0,1,.91-.76,3,3,0,0,1,.46-.26c.16-.06.28-.22.51,0a13.39,13.39,0,0,1,2,2.6,11.07,11.07,0,0,0,2,2.7,3.8,3.8,0,0,1,.42.55,11.45,11.45,0,0,0,.78.9,5.68,5.68,0,0,0,.88.67,2,2,0,0,0,1.22.44,2,2,0,0,1,.58.11,3.14,3.14,0,0,1-.29-.58,1.76,1.76,0,0,0-.63-.88c-.78-.79-1.55-1.58-2.32-2.38a.39.39,0,0,1-.06-.11.48.48,0,0,1,.14,0c.17,0,.33,0,.5,0a1.63,1.63,0,0,1,1.5.55,2.4,2.4,0,0,0,.66.39,4.47,4.47,0,0,1,1.24.78,2,2,0,0,0,1.2.46c.25,0,.44.06.55.35a1.85,1.85,0,0,0,.48.53.66.66,0,0,0,.29.09c.05,0,.1,0,.16,0a.85.85,0,0,0-.06-.17c-.44-.43-.83-.93-1.28-1.33a6.07,6.07,0,0,0-2.16-1.53,2.61,2.61,0,0,1-.71-.46.22.22,0,0,1,0-.16,6.14,6.14,0,0,1,.74-.18c.17,0,.31,0,.33.22,0,.09.24.17.37.25a8.58,8.58,0,0,1,1.29.87,3.63,3.63,0,0,0,1.43.71,1.17,1.17,0,0,1,.55.25c.58.7,1.48,1,2,1.84a2.41,2.41,0,0,0,1.08.73,9.73,9.73,0,0,1,1.88,1.21,8.32,8.32,0,0,0,1.58,1,5.78,5.78,0,0,0,1.31.61l.53.08s.08-.12.08-.13L53.22,69.7c-.41-.38-1-.54-1.28-1.11a1.29,1.29,0,0,0-.95-.65c-.05,0-.11-.12-.11-.17s.08-.13.13-.15a11.19,11.19,0,0,0,1.14-.44c.18-.1.25-.06.41,0a6,6,0,0,1,1.22,1,2.21,2.21,0,0,0,1.91.75,1.71,1.71,0,0,1,1.1.32,5.78,5.78,0,0,0,1.38.75h0l.35.12h0l1.32.47a.4.4,0,0,0,.38-.08A3.56,3.56,0,0,1,61.66,70c.48-.1,3.67-1.07,4.62-1.35a2,2,0,0,1,2.15.52c.66.57,2.81.76,3.28.79a6.4,6.4,0,0,1,1.81.67,1.7,1.7,0,0,1,.91,1.16c.14.3.67.71,1,.61s-.24-.42-.52-1.22A2.29,2.29,0,0,0,73.19,69.7Z"/><path class="cls-1" d="M79.83,72.21A1.84,1.84,0,0,0,78.34,72c-.45.07-.48,0-.48,0l-1-.47c-1.37-.22.47,1,.47,1a10.86,10.86,0,0,1,2.45.13C80.78,72.91,80.3,72.59,79.83,72.21Z"/></g></g></svg>