<svg xmlns="http://www.w3.org/2000/svg" viewBox="0 0 290.03 248.85"><defs><style>.cls-1{fill:#a85149;}.cls-2{fill:#213435;}</style></defs><g id="圖層_2" data-name="圖層 2"><g id="Layer_1" data-name="Layer 1"><path class="cls-1" d="M0,93.06C2.49,70.4,15,41,39.93,19,60.56.7,87.73-3.73,113.21,2.93c38.13,10,76.59,20.36,111.61,39.61,12.84,7.06,25.69,14.06,37.26,23.24,21.78,17.27,31.94,38.91,26.51,66.88-5,26-12,51.5-23.29,75.37-15.7,33.12-46.77,46.25-87.53,38.79-22.34-4.09-43.39-11.47-62.63-23.86-16.07-10.35-33.37-18.28-51.2-25.24C23.4,181.88.09,147.22,0,93.06Z"/><path class="cls-2" d="M205.33,13.48c-2.18-.24-4.43-1.87-4.05-2.91,2-5.38,7.76-4.68,12-6.39,2.88-1.17,3.22,2.38,3,3.72C215,14.45,208.19,10.25,205.33,13.48Z"/><path class="cls-2" d="M181.49,23.83c3.16-1.79,5.9-3.12,8.4-4.8a3.83,3.83,0,0,1,5.25.73c1.45,1.87.25,4.14-1.5,5.58C188.85,29.3,185.63,28.81,181.49,23.83Z"/><path class="cls-2" d="M223.7,26.93c-2.85.82-4.65,0-4.29-2.15.8-4.64,5.33-4.51,8.66-5.67,2.35-.82,4.21.72,4,2.93C231.52,27.74,226.23,25.76,223.7,26.93Z"/><path class="cls-2" d="M152.14,33.87c-3.32.73-4.43-1.47-3.87-2.72,1.76-3.88,5.68-4.67,9.52-5.22,2.94-.42,3.63,2.22,3.22,3.7C159.61,34.55,154.67,32.76,152.14,33.87Z"/><path class="cls-2" d="M250.32,33.28c-2.48-.33-5,0-5-3.27.07-4.75,3.79-3.9,6.63-4,2.08-.09,5.06-1.4,5.13,2.78C257.18,34.44,252.11,31.38,250.32,33.28Z"/><path class="cls-2" d="M216.22,41.24c1.36-3.23,4.91-4.06,8.12-4.59,2.66-.45,3,2.87,2.71,4.2-.67,3.54-4.28,3.84-7.06,4.33C218.16,45.5,216.16,44.42,216.22,41.24Z"/><path class="cls-2" d="M197.74,40.6a3.8,3.8,0,0,1-3.48-4.49c.66-3.32,4.19-3.23,6.77-3.77,2.08-.43,4.08.57,4,3.07C204.9,40.05,200.46,39.08,197.74,40.6Z"/><path class="cls-2" d="M192.14,60.9c-2.43,0-3.79-1.27-3.4-3.15.95-4.51,5.53-4.14,8.65-5.47,2.13-.91,3.22,1.61,2.92,3.16C199.44,60,194.51,58.75,192.14,60.9Z"/><path class="cls-2" d="M181.29,41.48c-2.42,4.5-6.64,3.91-9.93,5-2.17.72-3.33-1.26-2.92-3.1,1-4.39,5.38-3.59,8.33-4.86S178.41,42.05,181.29,41.48Z"/><path class="cls-2" d="M172.1,5c3.88-1.11,4.61.85,4.5,2.86-.29,4.76-4.78,3.22-7.38,4.4-2.83,1.29-3.56-1.47-3.47-3.14C166,4.34,170.78,6.38,172.1,5Z"/><path class="cls-2" d="M192.49,70.16c1.54.51,4.79-.24,4.18,2.47-1,4.36-5.86,3.46-9,4.94-1.52.72-2.29-.71-2.2-2.2C185.77,71,188.91,70.38,192.49,70.16Z"/><path class="cls-2" d="M162.18,84.62c-2.54.2-4.64-.39-4.5-2.38.25-3.65,3.51-4.63,6.47-5.41,2.72-.71,3.74,1.42,3.63,3.36C167.57,83.87,164,83.65,162.18,84.62Z"/><path class="cls-2" d="M260.61,71.94c-1,3.17-3.91,3.63-6.66,4-2.19.26-4.22-1-3.87-3.24.6-3.91,4.53-3.57,7.27-4.27C259.46,67.84,260.05,70,260.61,71.94Z"/><path class="cls-2" d="M247.89,53.68c-.18,2.68-3.7,2.33-6,3.14A3.12,3.12,0,0,1,237.66,54c0-4.41,4.27-4.46,7.13-5.3S247.63,50.45,247.89,53.68Z"/><path class="cls-2" d="M217.62,61.88c2.78-.71,3.49.43,3.64,2.58.35,5-4.21,3-6.37,4.38a2.29,2.29,0,0,1-3.19-2.16C211.89,62.76,214.9,62.05,217.62,61.88Z"/><path class="cls-2" d="M238.33,7.76c-1.7-.28-4,.3-3.82-2.37.16-3.65,3.1-4,5.87-4.76A3.28,3.28,0,0,1,244.57,4C244.48,7.88,240.52,6.63,238.33,7.76Z"/><path class="cls-2" d="M141.44,79.72c-4.32-3-7.94,3.25-10.73-1.82-1.11-2,.84-3.67,2.66-4.52C137.68,71.38,139.08,74.5,141.44,79.72Z"/><path class="cls-2" d="M131.83,51.92c-2.34.29-3.81-1.6-3.34-3,1-2.82,3.74-4.35,6.66-4.53s.11,3.71,2.47,4.31C136.72,51.66,134,51.25,131.83,51.92Z"/><path class="cls-2" d="M256.38,12.1c.4-2.67,2.44-3.35,4.54-4,2.75-.9,3.59,1,3.85,2.95.45,3.35-3,2.54-4.55,3.49C258.26,15.67,257.34,13.49,256.38,12.1Z"/><path class="cls-2" d="M162.58,65.67c-2.25.23-3.88-.5-3.66-2.73.33-3.38,3.33-3.7,5.85-4.12,3.25-.53,2.55,3.28,2.55,4C167.35,65.75,164.25,64.92,162.58,65.67Z"/><path class="cls-2" d="M145.32,61.74c-2.64.23-3.37-.24-3.55-2.39-.3-3.66,2.81-3.43,4.56-4.38,1.93-1,1.4.91,1.75,2.09C149.11,60.54,146.48,60.86,145.32,61.74Z"/></g></g></svg>