<svg xmlns="http://www.w3.org/2000/svg" viewBox="0 0 531.23 311.21"><defs><style>.cls-1{fill:#23383a;}.cls-2{fill:#626e60;}</style></defs><g id="圖層_2" data-name="圖層 2"><g id="Layer_1" data-name="Layer 1"><path class="cls-1" d="M304.76.49c-59.13,2.25-117,14.34-175.35,23-24.66,3.64-49.11,7.36-73,15.75C31.47,48,17,65,9.83,89c-13,43.74-15.73,85.52,8.32,128.71,15,26.91,26.18,53.47,58.29,62.72,7.57,2.19,15.49,5.59,23,5.11,61.67-3.95,124.66.48,182.75-27.49,19.33-9.31,36.91-20.53,49.82-38.33,29.26-40.3,63.38-77.43,80.89-125.34,1.24-3.42,3.33-6.53,4.64-9.93,14.12-36.55,2-60-36.17-69.88C363.16,9.86,345,4.71,326.62.74,319.64-.77,312.06.49,304.76.49Z"/><path class="cls-2" d="M240.29,183.29c1.87,37.39,10.34,70.22,36.7,93.07,23.25,20.14,52.19,28.82,81.83,33.68,10.82,1.77,21.54,1.82,32.15-1.88,24.52-8.54,50.43-5.59,75.48-9.93,44.17-7.67,66.36-49,64.69-90C529.75,174.1,510.78,153.5,481,143.7c-14.72-4.83-28.76-11.27-38.71-23.2-23.32-28-53.31-34-86.14-32.59-12.91.55-25.83,1.31-38.71,2.43-25.5,2.22-46.09,15-62.13,35.22C241.6,142.8,241.92,164.64,240.29,183.29Zm6.88.77c1.55-17.78,1.25-38.58,14.26-55,15.29-19.28,34.9-31.43,59.19-33.54,12.27-1.07,24.58-1.8,36.88-2.32,31.28-1.32,59.86,4.41,82.07,31.05,9.48,11.36,22.85,17.5,36.87,22.1,28.42,9.34,46.5,29,47.82,61.52,1.59,39-19.54,78.39-61.62,85.69-23.87,4.15-48.56,1.33-71.91,9.47-10.12,3.52-20.33,3.47-30.64,1.79-28.23-4.63-55.81-12.9-77.95-32.09C257,251,249,219.67,247.17,184.06Z"/></g></g></svg>