<svg xmlns="http://www.w3.org/2000/svg" viewBox="0 0 26.95 3.86"><defs><style>.cls-1{fill:#e5d29c;}</style></defs><g id="圖層_2" data-name="圖層 2"><g id="Layer_1" data-name="Layer 1"><path class="cls-1" d="M11.85,2.18A1.66,1.66,0,0,0,11.5,2c-.05,0-.12-.05-.15-.09a1.75,1.75,0,0,0-.6-.42.29.29,0,0,0-.1,0H10.6V1.5c.05.09.17.14.25.21a.06.06,0,0,1,0,.06.08.08,0,0,1-.07,0,2.46,2.46,0,0,0-.41-.13c-.08,0-.15-.07-.24,0l.16.13a.94.94,0,0,0,.39.18,2,2,0,0,1,.55.24c.21,0,.34.17.56.18s.13.07.2.11l.1.05s.05,0,.05,0a0,0,0,0,0,0,0Z"/><path class="cls-1" d="M14.83,3a3,3,0,0,1-.44-.23c-.15-.09-.31-.17-.47-.25h-.09s0,.06,0,.08a.53.53,0,0,0,.21.21,4.86,4.86,0,0,1,.54.33,1.48,1.48,0,0,0,.52.25l.14,0,.1,0a.12.12,0,0,0,0-.1A2.19,2.19,0,0,0,14.83,3Z"/><path class="cls-1" d="M19.9,3.76l-.63-.25a.71.71,0,0,0-.36-.08.48.48,0,0,1-.26-.09c-.11-.06-.22,0-.23.07a.09.09,0,0,0,0,.07c.12,0,.16.06.24.08a.59.59,0,0,0,.17,0,.68.68,0,0,1,.35.09,5.18,5.18,0,0,0,.56.17v0a.27.27,0,0,0,.09,0l0,0Z"/><path class="cls-1" d="M1.44,2.61c-.19.1-.41.15-.6.25A1.24,1.24,0,0,0,.66,3s0,0-.05.06l.12,0H.81L1,3a1.12,1.12,0,0,1,.25-.11.93.93,0,0,0,.43-.25s0-.06,0-.09l-.16,0Z"/><path class="cls-1" d="M21,3.26a.57.57,0,0,1-.26-.08c-.12-.08-.27-.05-.4-.11s-.13,0-.21.06,0,.06,0,.06c.26.1.52.19.79.27a.84.84,0,0,0,.31,0,.13.13,0,0,0,.11,0s0,0,0,0A.63.63,0,0,0,21,3.26Z"/><path class="cls-1" d="M7.37,1.85c-.14,0-.29,0-.35.12s-.22.17-.4.19-.2.12-.3.18,0,0,0,.05,0,0,.07,0h.06a.26.26,0,0,0,.21-.06A3.34,3.34,0,0,1,7.29,2l.11-.05a.07.07,0,0,0,0-.05A.07.07,0,0,0,7.37,1.85Z"/><path class="cls-1" d="M9.29,1.69a.59.59,0,0,0-.14.06,2.71,2.71,0,0,0-.34.18,3.31,3.31,0,0,0-.34.3v0l0,0a.41.41,0,0,0,.27-.08L9,2.05c.05,0,.13-.07.12-.15s0-.06.07-.08S9.31,1.68,9.29,1.69Z"/><path class="cls-1" d="M3.55,2.53l-.36.2s0,0,0,.06l.07,0a1.39,1.39,0,0,0,.62-.26.25.25,0,0,0,0-.07l-.12,0Z"/><path class="cls-1" d="M.26,2.13a1,1,0,0,1-.21.08s0,0,0,.07l.12.05.23-.1a.07.07,0,0,0,0-.08S.33,2.08.26,2.13Z"/><path class="cls-1" d="M6.47,1.78l0,0a.79.79,0,0,0-.35.1,0,0,0,0,0,0,0s0,0,0,0l.3-.08Z"/><path class="cls-1" d="M2.14,2.1a0,0,0,0,0,0,0l0,0H1.88c-.06,0-.12,0-.11.09s.12,0,.14,0S2.06,2.12,2.14,2.1Z"/><path class="cls-1" d="M11.19,2.86l.08,0h.08l-.07,0Z"/><path class="cls-1" d="M15.29,2.31s0,0-.1,0l.11,0s0,0,0,0Z"/><path class="cls-1" d="M24.45,2.78a7,7,0,0,1-1.3-.23A1.72,1.72,0,0,0,22,2.33c-.56.12-1.78.3-1.78.3a1.16,1.16,0,0,1-.52,0,.32.32,0,0,0-.28,0c-.38-.15-.75-.31-1.15-.43A.92.92,0,0,1,18,2.11a3.15,3.15,0,0,0-.51-.28.74.74,0,0,0-.55,0A2.87,2.87,0,0,0,16.3,2,.24.24,0,0,1,16,2a.83.83,0,0,0-.45-.31l0,0a1.45,1.45,0,0,0-.66-.31,1.46,1.46,0,0,1-.44-.19,3.89,3.89,0,0,1-.5-.25.28.28,0,0,0-.28,0L13.19,1a3.72,3.72,0,0,1-.48.11.66.66,0,0,0-.29.09.14.14,0,0,1-.12,0,.29.29,0,0,1-.13-.05,1.36,1.36,0,0,1-.42-.36,2.89,2.89,0,0,0-.42-.44c-.05,0-.12-.09-.18-.14L11,.12C10.87,0,10.68,0,10.49,0s-.15,0-.23,0a2.3,2.3,0,0,0-.47.09A3.31,3.31,0,0,1,9,.34a.52.52,0,0,0-.29.09A2.78,2.78,0,0,1,8.21.6,1.17,1.17,0,0,0,8,.65a.46.46,0,0,1-.34,0,1.25,1.25,0,0,0-.33,0c-.07,0-.14,0-.2,0A.45.45,0,0,0,6.87.58a3.44,3.44,0,0,0-.55.15l-1,.41-.56.26c-.07,0-.1.11-.2.11a2.1,2.1,0,0,1-.5,0L3.34,1.3a4.56,4.56,0,0,0-.53-.13.9.9,0,0,0-.69.13,5,5,0,0,1-.86.44l-.08,0A.36.36,0,0,0,1,1.9a1.79,1.79,0,0,0,.33,0,1.66,1.66,0,0,0,.31-.12c.1-.05.25-.05.32-.14s.08,0,.12,0a.81.81,0,0,0,.47-.09h0c.08,0,.11,0,.09.07s-.07.15-.32.28c-.07,0-.08.06,0,.09a.3.3,0,0,0,.25,0A1.14,1.14,0,0,0,3,1.73a.32.32,0,0,1,.22-.07,1,1,0,0,1,.5.08l.08,0s-.05.05-.08.05a9.3,9.3,0,0,0-1.59.54l-.09,0s0,0,0,0l.05,0h.28a2,2,0,0,0,.8-.16c.16,0,.36,0,.49-.15A2.88,2.88,0,0,0,4.12,2a2.62,2.62,0,0,0,.81-.29,9.55,9.55,0,0,1,1.26-.54A3.29,3.29,0,0,1,6.81,1L7,.92C7,.91,7.08.92,7,1s0,.07,0,.1-.1.27-.35.34l-.09.05c-.07,0-.09,0-.06.06a.45.45,0,0,0,.14.06c.06-.08.2,0,.3-.08l.22-.15c.12-.12.32-.14.43-.25l.34.07a1.76,1.76,0,0,1,.2.09l.07,0-.07,0a1.89,1.89,0,0,0-.57.35.08.08,0,0,0,0,.08.16.16,0,0,0,.07,0,5.55,5.55,0,0,0,.73-.13l.43-.16c.18-.08.35-.18.53-.28S9.78,1,10,.82a1.09,1.09,0,0,0,.27-.25.7.7,0,0,1,.32-.2L10.75.3c.05,0,.09-.06.18,0a3.72,3.72,0,0,1,.7.67,3.51,3.51,0,0,0,.69.7.66.66,0,0,1,.15.14,3,3,0,0,0,.27.23,1.83,1.83,0,0,0,.3.18,1,1,0,0,0,.43.11.69.69,0,0,1,.2,0,1.3,1.3,0,0,1-.1-.15c0-.11-.13-.16-.22-.23l-.81-.62s0,0,0,0h.22a.69.69,0,0,1,.53.14,1.22,1.22,0,0,0,.23.1,1.89,1.89,0,0,1,.43.2.83.83,0,0,0,.42.12c.09,0,.15,0,.19.09a.61.61,0,0,0,.17.14l.1,0h0s0,0,0-.05-.29-.24-.44-.34a2.24,2.24,0,0,0-.75-.4,1,1,0,0,1-.25-.12s0,0,0,0l.26-.05c.06,0,.11,0,.11.06s.09,0,.13.06a3.77,3.77,0,0,1,.45.23,1.36,1.36,0,0,0,.5.18.47.47,0,0,1,.19.07c.2.18.52.26.69.47a.85.85,0,0,0,.38.19,3.36,3.36,0,0,1,.66.32,3.43,3.43,0,0,0,.55.25,2.41,2.41,0,0,0,.45.16l.19,0,0,0-.51-.34c-.14-.1-.34-.14-.44-.29a.48.48,0,0,0-.33-.17s0,0,0,0a0,0,0,0,1,0,0c.14,0,.27-.07.4-.12a.17.17,0,0,1,.14,0,1.85,1.85,0,0,1,.43.27.91.91,0,0,0,.66.19.85.85,0,0,1,.39.08,2,2,0,0,0,.48.2h0l.12,0h0L19.8,3a.15.15,0,0,0,.13,0,1.46,1.46,0,0,1,.5-.16c.16,0,1.28-.27,1.61-.35a.85.85,0,0,1,.74.14,3.62,3.62,0,0,0,1.15.2,2.58,2.58,0,0,1,.63.18.47.47,0,0,1,.32.3.43.43,0,0,0,.35.15c.11,0-.09-.1-.19-.31A.75.75,0,0,0,24.45,2.78Z"/><path class="cls-1" d="M26.76,3.42a.86.86,0,0,0-.52,0h-.17l-.33-.13c-.48-.05.17.27.17.27a5,5,0,0,1,.85,0C27.09,3.61,26.93,3.52,26.76,3.42Z"/></g></g></svg>