<svg xmlns="http://www.w3.org/2000/svg" viewBox="0 0 370.9 294.24"><defs><style>.cls-1{fill:#7c584f;}.cls-2{fill:#b78552;}</style></defs><g id="圖層_2" data-name="圖層 2"><g id="Layer_1" data-name="Layer 1"><path class="cls-1" d="M281.59,47.55c28.12,4.39,53.53,10.08,65.85,38.31a53.08,53.08,0,0,0,6.84,10.91c37.3,48.18,4.86,94.31-29,118.86C306,229.68,285.25,241.75,268.89,260c-10,11.18-24.42,17.12-39.23,21.05a202.46,202.46,0,0,1-47.08,6.42c-15.07.37-30,.43-44.68,4.58a52.35,52.35,0,0,1-36.45-2.44c-12.94-5.69-27.26-6.4-40.63-11.83-23.12-9.39-27.77-46.94-15.92-62.26,2.9-3.73,5.1-8.32,8.7-11.13C71.75,190.24,78.18,169.49,84.25,149c11.81-39.85,41.6-59.8,78.23-71.19,14.64-4.56,30.09-7.63,44.27-13.25C231.49,54.77,258.47,57,281.59,47.55Z"/><path class="cls-2" d="M189.89,57C169.71,27.7,142.59,12.52,109.36,2.7,60.29-11.8,6.47,34.93,2.65,75.13,1.45,87.71-.65,100.27.36,112.88c-3.07,39.23,13.77,68.75,44.75,90.88,9.37,6.69,20,12.29,31.8,13,30,1.86,57.79-4.08,83.34-21.26C203.54,166.43,218.91,99.13,189.89,57ZM157.72,191.72c-24.43,16.43-51,22.11-79.69,20.33-11.32-.7-21.45-6.06-30.42-12.46C18,178.43,1.89,150.2,4.82,112.69c-1-12.06,1-24.07,2.19-36.1,3.66-38.44,55.13-83.12,102-69.26,31.78,9.39,57.72,23.91,77,51.92C213.81,99.54,199.11,163.89,157.72,191.72Z"/></g></g></svg>