<svg xmlns="http://www.w3.org/2000/svg" viewBox="0 0 527.66 296.23"><defs><style>.cls-1{fill:#626e60;}.cls-2{fill:#b78552;}</style></defs><g id="圖層_2" data-name="圖層 2"><g id="Layer_1" data-name="Layer 1"><path class="cls-1" d="M276.16,1.13c50-1.66,92.18,9.34,123.55,46.11,18.24,21.38,30.15,47,43.63,71.39,6,10.79,5.48,25-4,32.89-26,21.76-47.43,48.71-77.33,66-29.51,17.06-62.52,14-92.43,8.34-37.77-7.16-73.74-3.05-109.25,4.73-44.71,9.79-87.78,1.34-131.1-4.7C0,221.81-8.61,197.51,9.33,174.1c11.37-14.83,18-29.94,14-48.7-2.37-11.09,1.73-20.35,9.26-28.51q38-41.19,93.69-49.49,27.28-4.12,54.58-8.16a35.75,35.75,0,0,0,22.07-12C223.3,3.22,249.5-2.85,276.16,1.13Z"/><path class="cls-2" d="M514.57,142.16c-14-16.81-32.05-27.39-54.35-29.23-11.26-.93-22.56-1.56-33.85-2-28.72-1.15-54.95,3.85-75.35,27.05-8.7,9.9-21,15.24-33.85,19.26-26.09,8.13-42.69,25.22-43.91,53.59-1.46,34,17.95,68.28,56.58,74.64,21.91,3.61,44.58,1.16,66,8.25,9.29,3.07,18.67,3,28.13,1.55,25.92-4,51.24-11.22,71.57-27.94,23.06-19,30.47-46.21,32.1-77.24C526.24,174.59,526.52,156.47,514.57,142.16ZM491.06,264.29c-19.37,15.93-43.49,22.78-68.19,26.62-9,1.41-17.94,1.45-26.79-1.48-20.43-6.75-42-4.41-62.9-7.85-36.8-6.07-55.29-38.76-53.9-71.12,1.16-27,17-43.31,41.83-51.05,12.26-3.83,24-8.92,32.25-18.35,19.43-22.1,44.42-26.86,71.78-25.77,10.76.43,21.52,1,32.26,1.93,21.24,1.75,38.4,11.83,51.77,27.84,11.38,13.63,11.12,30.9,12.47,45.65C520.08,220.26,513,246.22,491.06,264.29Z"/></g></g></svg>