<svg xmlns="http://www.w3.org/2000/svg" viewBox="0 0 14.87 28.65"><defs><style>.cls-1{fill:#626e60;}</style></defs><g id="圖層_2" data-name="圖層 2"><g id="Layer_1" data-name="Layer 1"><path class="cls-1" d="M3.18,28.65H5.53a4,4,0,0,0,2.67-1,3.85,3.85,0,0,0,1.38-2.46L12.79.46h2L14.87,0H7.72L7.66.46h2L7.75,15.32a4.22,4.22,0,0,1,1.85.56c-.63-.05-1.27-.06-1.91-.06l-.07.57a1.05,1.05,0,0,1,0,.18h0a1.53,1.53,0,0,1,0,.18c-.22,1.26-.72,1.89-1.49,1.89H5.25c-.84,0-1.17-.75-1-2.25L6.34.46,6.4,0H1.29L1.23.46h2L2,10.34a4.56,4.56,0,0,1,3,.08c-1,.07-2.06.24-3.09.38l-.63,4.84A3,3,0,0,0,2,18.1a3.11,3.11,0,0,0,2.41,1H7.26a.5.5,0,0,1-.3.3c-.32.12-1,.33-1.91.64a12.87,12.87,0,0,0-3.66,1.65,3.81,3.81,0,0,0-1.23,2.5l-.13,1a3,3,0,0,0,.73,2.46A3.13,3.13,0,0,0,3.18,28.65ZM3,25.92l.53-4.06a.57.57,0,0,1,0-.14c.11-.32.71-.68,1.79-1.08A15.77,15.77,0,0,1,7.15,20l-.78,5.89c-.19,1.5-.7,2.25-1.54,2.25H4a.85.85,0,0,1-.88-.58A3.47,3.47,0,0,1,3,25.92Z"/></g></g></svg>