<svg xmlns="http://www.w3.org/2000/svg" viewBox="0 0 327.11 255.93"><defs><style>.cls-1{fill:#d8ba8e;}.cls-2{fill:#213435;}</style></defs><g id="圖層_2" data-name="圖層 2"><g id="Layer_1" data-name="Layer 1"><path class="cls-1" d="M201,233.11c11.13,1.55,23.95-1.67,36.86-3.34,9.65-1.24,19.09-5.77,24.35-13.4,10.33-15,23.06-29.07,25.51-48.3,3.71-29,20.26-52.71,32.95-77.88,9.41-18.69,8.84-33.64-4-50C288.65,4.33,253.33-8.48,209.38,5.6,197,9.55,184.26,7,171.84,8.92,145.19,13.09,118.59,17.57,92,22c-8.25,1.37-15.12,5.55-21.34,11A174.06,174.06,0,0,1,25.45,62c-30.54,13.32-33.72,53.77-8.86,76.38,26.94,24.49,62,34.42,90.85,55,5.86,4.17,12.24,7.69,17.7,12.31C150.55,227.25,165.43,232.92,201,233.11Z"/><path class="cls-2" d="M81.41,180.6c-2.3-.25-4.68-2-4.28-3.08,2.1-5.69,8.22-5,12.66-6.76,3-1.24,3.41,2.52,3.15,3.94C91.69,181.63,84.44,177.18,81.41,180.6Z"/><path class="cls-2" d="M56.18,191.55c3.35-1.89,6.25-3.29,8.9-5.08a4,4,0,0,1,5.55.78c1.53,2,.26,4.37-1.59,5.91C64,197.34,60.56,196.82,56.18,191.55Z"/><path class="cls-2" d="M100.85,194.84c-3,.86-4.91,0-4.53-2.28.85-4.91,5.64-4.77,9.16-6,2.49-.87,4.46.76,4.24,3.1C109.14,195.7,103.53,193.59,100.85,194.84Z"/><path class="cls-2" d="M25.12,202.18c-3.51.77-4.69-1.55-4.09-2.87,1.86-4.11,6-5,10.07-5.53,3.12-.44,3.85,2.34,3.4,3.91C33,202.9,27.8,201,25.12,202.18Z"/><path class="cls-2" d="M129,201.56c-2.63-.35-5.35,0-5.29-3.46.08-5,4-4.14,7-4.25,2.21-.09,5.37-1.48,5.44,2.94C136.29,202.78,130.93,199.54,129,201.56Z"/><path class="cls-2" d="M92.94,210c1.44-3.41,5.19-4.29,8.6-4.86,2.81-.47,3.14,3,2.87,4.45-.71,3.75-4.54,4.06-7.48,4.58C95,214.49,92.88,213.34,92.94,210Z"/><path class="cls-2" d="M73.38,209.3a4,4,0,0,1-3.69-4.75c.71-3.52,4.44-3.42,7.18-4,2.19-.45,4.31.61,4.23,3.25C81,208.73,76.27,207.7,73.38,209.3Z"/><path class="cls-2" d="M67.46,230.78c-2.57,0-4-1.33-3.6-3.32,1-4.78,5.85-4.39,9.15-5.8,2.25-1,3.41,1.7,3.09,3.35C75.18,229.79,70,228.51,67.46,230.78Z"/><path class="cls-2" d="M56,210.23c-2.56,4.77-7,4.14-10.51,5.31-2.3.77-3.52-1.33-3.09-3.28,1-4.64,5.7-3.79,8.82-5.14S52.92,210.83,56,210.23Z"/><path class="cls-2" d="M46.25,171.6c4.1-1.18,4.88.89,4.75,3-.29,5-5,3.41-7.8,4.66-3,1.36-3.77-1.56-3.68-3.33C39.78,170.93,44.85,173.09,46.25,171.6Z"/><path class="cls-2" d="M67.83,240.59c1.63.54,5.06-.26,4.41,2.61-1,4.61-6.19,3.66-9.48,5.23-1.6.77-2.42-.75-2.32-2.33C60.72,241.51,64,240.82,67.83,240.59Z"/><path class="cls-2" d="M35.75,255.9c-2.69.2-4.91-.42-4.77-2.53.27-3.86,3.72-4.9,6.85-5.72,2.88-.76,4,1.5,3.84,3.56C41.45,255.1,37.67,254.87,35.75,255.9Z"/><path class="cls-2" d="M139.92,242.47c-1.08,3.36-4.14,3.85-7,4.19-2.32.27-4.46-1.07-4.1-3.44.65-4.14,4.8-3.78,7.7-4.52C138.7,238.13,139.33,240.47,139.92,242.47Z"/><path class="cls-2" d="M126.46,223.14c-.19,2.84-3.92,2.47-6.36,3.33a3.29,3.29,0,0,1-4.46-3c0-4.66,4.51-4.71,7.54-5.6C126.05,217,126.18,219.73,126.46,223.14Z"/><path class="cls-2" d="M94.42,231.82c3-.74,3.7.47,3.86,2.73.37,5.31-4.46,3.22-6.75,4.64a2.43,2.43,0,0,1-3.38-2.29C88.36,232.76,91.55,232,94.42,231.82Z"/><path class="cls-2" d="M116.34,174.54c-1.79-.29-4.18.33-4-2.5.17-3.86,3.28-4.28,6.21-5a3.47,3.47,0,0,1,4.43,3.52C122.85,174.67,118.66,173.35,116.34,174.54Z"/><path class="cls-2" d="M13.8,250.71c-4.58-3.14-8.41,3.44-11.36-1.93-1.18-2.14.89-3.88,2.82-4.78C9.82,241.88,11.3,245.19,13.8,250.71Z"/><path class="cls-2" d="M3.63,221.28c-2.48.31-4-1.69-3.54-3.16,1-3,4-4.61,7.05-4.79s.11,3.92,2.62,4.55C8.8,221,5.89,220.57,3.63,221.28Z"/><path class="cls-2" d="M135.44,179.13c.43-2.81,2.59-3.54,4.81-4.26,2.91-1,3.8,1.08,4.07,3.13.48,3.54-3.13,2.68-4.82,3.69C137.43,182.92,136.46,180.62,135.44,179.13Z"/><path class="cls-2" d="M36.17,235.83c-2.39.25-4.11-.52-3.88-2.88.35-3.58,3.53-3.92,6.2-4.36,3.44-.57,2.69,3.46,2.7,4.19C41.22,235.92,37.94,235.05,36.17,235.83Z"/><path class="cls-2" d="M17.9,231.68c-2.79.24-3.56-.26-3.75-2.53-.33-3.88,3-3.64,4.82-4.64,2-1.1,1.49,1,1.86,2.22C21.92,230.4,19.13,230.75,17.9,231.68Z"/></g></g></svg>