<svg xmlns="http://www.w3.org/2000/svg" viewBox="0 0 256.65 24.39"><defs><style>.cls-1{fill:#2b4448;}</style></defs><g id="圖層_2" data-name="圖層 2"><g id="Layer_1" data-name="Layer 1"><path class="cls-1" d="M216.74,12.32,246.56,19l2.14-2.34s-7.37-.24-9.54-2.94C238.25,12.6,217.69,9.43,216.74,12.32Z"/><path class="cls-1" d="M251.09,24.39c-3.07,0-5.56-2.13-5.56-4.74s2.49-4.74,5.56-4.74,5.56,2.12,5.56,4.74S254.15,24.39,251.09,24.39Zm0-7.43c-1.94,0-3.51,1.21-3.51,2.69s1.57,2.69,3.51,2.69,3.5-1.21,3.5-2.69S253,17,251.09,17Z"/><path class="cls-1" d="M246.44,9.48c-3.07,0-5.56-2.12-5.56-4.74S243.37,0,246.44,0,252,2.13,252,4.74,249.5,9.48,246.44,9.48Zm0-7.43c-1.94,0-3.51,1.21-3.51,2.69s1.57,2.69,3.51,2.69,3.5-1.21,3.5-2.69S248.37,2.05,246.44,2.05Z"/><path class="cls-1" d="M227.82,19.61,243.09,7.24l4.31.24s-6.94,3.81-7.58,5a4.42,4.42,0,0,0-.45,2.51l-6.28,4.82Z"/><path class="cls-1" d="M231.63,21.23H216.28a1.43,1.43,0,0,1,0-2.86h15.35a1.43,1.43,0,1,1,0,2.86Zm-30.69,0H185.59a1.43,1.43,0,0,1,0-2.86h15.35a1.43,1.43,0,0,1,0,2.86Zm-30.7,0H154.9a1.43,1.43,0,0,1,0-2.86h15.34a1.43,1.43,0,1,1,0,2.86Zm-30.69,0H124.2a1.43,1.43,0,0,1,0-2.86h15.35a1.43,1.43,0,1,1,0,2.86Zm-30.7,0H93.51a1.43,1.43,0,0,1,0-2.86h15.34a1.43,1.43,0,1,1,0,2.86Zm-30.69,0H62.81a1.43,1.43,0,0,1,0-2.86H78.16a1.43,1.43,0,1,1,0,2.86Zm-30.69,0H32.12a1.43,1.43,0,1,1,0-2.86H47.47a1.43,1.43,0,0,1,0,2.86Zm-30.7,0H1.43a1.43,1.43,0,0,1,0-2.86H16.77a1.43,1.43,0,0,1,0,2.86Z"/></g></g></svg>