<svg xmlns="http://www.w3.org/2000/svg" viewBox="0 0 27.34 23.87"><defs><style>.cls-1{fill:#e5d29c;fill-rule:evenodd;}</style></defs><g id="圖層_2" data-name="圖層 2"><g id="Layer_1" data-name="Layer 1"><path class="cls-1" d="M13.67,23.87l-.47-.39C2.81,15,0,12.05,0,7.21A7.21,7.21,0,0,1,7.21,0a8.28,8.28,0,0,1,6.46,3.31A8.28,8.28,0,0,1,20.13,0a7.22,7.22,0,0,1,7.21,7.21c0,4.84-2.81,7.81-13.2,16.27l-.47.39ZM7.21,1.5A5.71,5.71,0,0,0,1.5,7.21c0,4.14,2.61,6.91,12.17,14.72,9.56-7.81,12.17-10.58,12.17-14.72A5.71,5.71,0,0,0,20.13,1.5c-2.88,0-4.39,1.72-5.6,3.1l-.86,1-.87-1c-1.2-1.38-2.71-3.1-5.59-3.1Z"/></g></g></svg>